<?xml version="1.0" encoding="UTF-8"?>
<svg version="1.1" xmlns="http://www.w3.org/2000/svg" width="534" height="200">
<path d="M0 0 C176.22 0 352.44 0 534 0 C534 66 534 132 534 200 C357.78 200 181.56 200 0 200 C0 134 0 68 0 0 Z " fill="#FEFEFE" transform="translate(0,0)"/>
<path d="M0 0 C6.6 0 13.2 0 20 0 C20.33 14.52 20.66 29.04 21 44 C24.465 41.525 24.465 41.525 28 39 C35.14828982 36.61723673 43.65852012 36.88647053 50.5 40.0625 C55.8321003 43.14580676 60.03081757 47.09245272 62 53 C62.08630926 54.45781722 62.11770981 55.91927474 62.11352539 57.37963867 C62.11344986 58.26032516 62.11337433 59.14101166 62.11329651 60.04838562 C62.10813522 60.99534805 62.10297394 61.94231049 62.09765625 62.91796875 C62.09553383 64.37654045 62.09553383 64.37654045 62.09336853 65.86457825 C62.08776817 68.97225004 62.07521562 72.07984996 62.0625 75.1875 C62.05748505 77.29361875 62.05292213 79.39973863 62.04882812 81.50585938 C62.03864925 86.67062293 62.01907383 91.83523094 62 97 C55.4 97 48.8 97 42 97 C41.96132813 93.08060547 41.96132813 93.08060547 41.921875 89.08203125 C41.88343076 86.54343016 41.83827836 84.00503055 41.79248047 81.46655273 C41.76430501 79.70623439 41.74307341 77.94579033 41.72900391 76.18530273 C41.70752627 73.65022589 41.66085408 71.1166549 41.609375 68.58203125 C41.60753204 67.40674614 41.60753204 67.40674614 41.60565186 66.2077179 C41.47339938 61.24193461 40.71737361 58.60908793 37 55 C34.13391871 53.56695936 32.18699217 53.69355845 29 54 C25.3421782 56.03993908 23.33053826 57.50419262 21 61 C20.75926865 63.75218977 20.62717312 66.41217466 20.5859375 69.16796875 C20.55688828 70.36018791 20.55688828 70.36018791 20.5272522 71.57649231 C20.46750558 74.11338595 20.42109117 76.65032509 20.375 79.1875 C20.33681565 80.90822284 20.29776365 82.62892665 20.2578125 84.34960938 C20.16017551 88.56630689 20.08056987 92.78280351 20 97 C13.4 97 6.8 97 0 97 C-0.495 93.04 -0.495 93.04 -1 89 C-1.66 89.7425 -2.32 90.485 -3 91.25 C-8.55514687 96.70965121 -14.38140182 98.50399354 -22.08398438 98.546875 C-23.02564453 98.53140625 -23.96730469 98.5159375 -24.9375 98.5 C-26.34418945 98.52320313 -26.34418945 98.52320313 -27.77929688 98.546875 C-34.36837909 98.51024355 -39.21550177 97.11222075 -45 94 C-45.66 93.67 -46.32 93.34 -47 93 C-47 94.32 -47 95.64 -47 97 C-53.6 97 -60.2 97 -67 97 C-67.33 95.35 -67.66 93.7 -68 92 C-68.54269531 92.34933594 -69.08539063 92.69867188 -69.64453125 93.05859375 C-70.35996094 93.51363281 -71.07539063 93.96867187 -71.8125 94.4375 C-72.52019531 94.88996094 -73.22789062 95.34242188 -73.95703125 95.80859375 C-80.00199867 99.33386156 -88.19444754 98.77292498 -95 98 C-102.81037503 95.6753543 -108.28526555 89.61826127 -112.3203125 82.75390625 C-115.88812446 75.15671226 -116.46351763 66.50052414 -114.3046875 58.38671875 C-113.36676713 56.1049713 -112.30182486 54.09423999 -111 52 C-110.56429687 51.29101562 -110.12859375 50.58203125 -109.6796875 49.8515625 C-105.67678437 43.96751364 -100.75526824 40.25175608 -94 38 C-83.45987526 37.04510338 -75.91710343 37.65223146 -67 44 C-67 42.35 -67 40.7 -67 39 C-60.4 39 -53.8 39 -47 39 C-46.67 54.51 -46.34 70.02 -46 86 C-44.35 83.36 -42.7 80.72 -41 78 C-38.23658597 79.05659948 -35.70648905 80.16589749 -33.125 81.625 C-29.49271835 83.22320392 -26.92949278 83.30226868 -23 83 C-22.34 82.67 -21.68 82.34 -21 82 C-21.06728249 79.55772598 -21.06728249 79.55772598 -22 77 C-24.45016992 75.58293714 -24.45016992 75.58293714 -27.5 74.6875 C-33.96218495 72.26321556 -40.78497847 68.43004306 -44 62 C-44.49813129 56.54505412 -44.71117027 51.62976519 -42.5 46.5625 C-36.45708132 40.36850835 -30.69544697 37.89074059 -22.09375 37.765625 C-20.99546875 37.75789063 -20.99546875 37.75789063 -19.875 37.75 C-19.16601562 37.729375 -18.45703125 37.70875 -17.7265625 37.6875 C-11.29059747 37.64119809 -7.65940763 39.00217771 -1 41 C-0.67 27.47 -0.34 13.94 0 0 Z " fill="#8557F6" transform="translate(332,33)"/>
<path d="M0 0 C1.875 1.0625 1.875 1.0625 3 3 C3.69371602 8.54972812 2.25743477 13.23924401 0.65625 18.546875 C-0.12921426 21.05978403 -0.12921426 21.05978403 0 24 C0.99 24.66 1.98 25.32 3 26 C3.42971066 29.29444843 3.37277399 31.29369138 1.8125 34.25 C0 36 0 36 -2.46029663 36.69378662 C-5.27072065 37.81467603 -5.27072065 37.81467603 -6.37832642 40.89556885 C-6.73123749 42.13433777 -7.08414856 43.37310669 -7.44775391 44.64941406 C-7.74885826 45.67415077 -7.74885826 45.67415077 -8.05604553 46.71958923 C-8.71527094 48.97990598 -9.34561949 51.24726715 -9.9765625 53.515625 C-10.43111633 55.09079094 -10.88763734 56.66539041 -11.34603882 58.23944092 C-12.54936372 62.38823876 -13.72918845 66.54334252 -14.90325928 70.70050049 C-16.78331054 77.34165239 -18.69972648 83.9724107 -20.61423874 90.6036911 C-21.27842358 92.91608506 -21.9332936 95.23095394 -22.58657837 97.54644775 C-22.9945752 98.9753455 -23.40271977 100.40420107 -23.81103516 101.83300781 C-24.16235504 103.07495911 -24.51367493 104.3169104 -24.87564087 105.59649658 C-27.47997536 113.47997536 -27.47997536 113.47997536 -30 116 C-34.56650555 116.36107444 -37.43196917 115.64270578 -41.4765625 113.55859375 C-42.476875 113.05779297 -43.4771875 112.55699219 -44.5078125 112.04101562 C-46.05082031 111.24727539 -46.05082031 111.24727539 -47.625 110.4375 C-49.67411821 109.38363137 -51.72861978 108.34014614 -53.7890625 107.30859375 C-54.69350098 106.84251709 -55.59793945 106.37644043 -56.52978516 105.89624023 C-58.89181875 104.87472309 -58.89181875 104.87472309 -61.10449219 105.02709961 C-63.94973637 106.48746773 -64.91958304 108.52452323 -66.5390625 111.2578125 C-67.19753174 112.35222656 -67.85600098 113.44664062 -68.53442383 114.57421875 C-69.04702255 115.44506104 -69.04702255 115.44506104 -69.56997681 116.33349609 C-70.97985526 118.72756931 -72.41700666 121.10477503 -73.85365295 123.48284912 C-74.56744717 124.66457205 -75.27996568 125.84706648 -75.99119568 127.03033447 C-78.83362447 131.75372297 -81.7631858 136.40780102 -84.8125 141 C-85.20195801 141.59699707 -85.59141602 142.19399414 -85.99267578 142.80908203 C-87.84068565 145.57157102 -89.18412664 147.12275109 -92 149 C-95.30634579 149.51117846 -96.62545414 149.24849677 -99.4375 147.3828125 C-100.283125 146.63773438 -101.12875 145.89265625 -102 145.125 C-102.95648438 144.30515625 -103.91296875 143.4853125 -104.8984375 142.640625 C-105.40213867 142.20685547 -105.90583984 141.77308594 -106.42480469 141.32617188 C-109.08775652 139.08420747 -111.85676645 136.98441991 -114.625 134.875 C-115.16995117 134.45387939 -115.71490234 134.03275879 -116.27636719 133.59887695 C-118.74506773 131.69458883 -121.22988223 129.83998394 -123.7890625 128.05859375 C-127.68483407 125.29445107 -129.6721281 123.87929282 -131.375 119.3125 C-131 116 -131 116 -128.875 113.5 C-126 112 -126 112 -123.66796875 112.15625 C-120.34408125 113.2074355 -118.18315409 114.86152115 -115.4375 117 C-112.23868971 119.48451285 -109.95002147 121.16808483 -106 122 C-99.42930873 115.62603601 -96.85008853 107.89041482 -93.75 99.5 C-93.21741286 98.09717456 -92.68356741 96.69482617 -92.1484375 95.29296875 C-89.85944722 89.24806615 -87.71123946 83.23394353 -86 77 C-88.006996 75.78146671 -89.40609066 74.97530793 -91.78515625 75.07421875 C-95.1942514 76.49918445 -97.28655059 79.16360618 -99.6875 81.875 C-100.21351807 82.45709229 -100.73953613 83.03918457 -101.28149414 83.63891602 C-106.56090656 89.5270909 -111.81235251 95.54783119 -116.41796875 101.98046875 C-118.63463585 105.00058801 -119.92679205 105.9768817 -123.5625 107.125 C-127 107 -127 107 -129.4375 105.375 C-131.31733137 102.51765632 -131.43784238 101.36342558 -131 98 C-129.34765625 95.7109375 -129.34765625 95.7109375 -127.0625 93.375 C-123.71996777 89.84938697 -120.54257521 86.28846226 -117.5 82.5 C-114.51916733 78.81043788 -111.4522029 75.24909589 -108.25 71.75 C-105.65818576 68.91393102 -103.25421389 66.09331091 -101.0625 62.9375 C-99 60 -99 60 -97 59 C-92.32866841 58.62946945 -89.31144857 59.45782997 -85.125 61.5 C-84.15820312 61.9640625 -83.19140625 62.428125 -82.1953125 62.90625 C-81.47085938 63.2671875 -80.74640625 63.628125 -80 64 C-79.67725098 63.19256348 -79.35450195 62.38512695 -79.02197266 61.55322266 C-77.82212248 58.55855885 -76.61770548 55.56578544 -75.41015625 52.57421875 C-74.88845908 51.27906011 -74.36858894 49.98316399 -73.85058594 48.68652344 C-73.1057231 46.8229394 -72.35373796 44.96220706 -71.6015625 43.1015625 C-71.15119629 41.98088379 -70.70083008 40.86020508 -70.23681641 39.70556641 C-69 37 -69 37 -67 35 C-63.05649137 34.42154457 -61.43945036 34.70029367 -58.11328125 36.96875 C-57.18902344 37.8040625 -56.26476562 38.639375 -55.3125 39.5 C-51.70431368 43.11565172 -51.70431368 43.11565172 -47 44 C-46.10278933 42.42461601 -45.2164929 40.84154 -44.39941406 39.22314453 C-41.76148508 34.14217646 -39.40667302 30.13178125 -33.8046875 28.1796875 C-27.96456909 26.64764696 -22.05013065 25.78562529 -16 26 C-15.82984375 25.34515625 -15.6596875 24.6903125 -15.484375 24.015625 C-14.10156258 18.80801226 -12.62862 13.63641691 -11 8.5 C-10.5359375 7.03046875 -10.5359375 7.03046875 -10.0625 5.53125 C-7.88396797 0.3412178 -5.5835647 -0.69794559 0 0 Z " fill="#8556F5" transform="translate(149,20)"/>
<path d="M0 0 C0.55945313 0.28875 1.11890625 0.5775 1.6953125 0.875 C0.14986104 6.35432789 -2.46011962 10.98929181 -5.3046875 15.875 C-8.2746875 15.545 -11.2446875 15.215 -14.3046875 14.875 C-16.35596594 17.95191766 -16.57729622 18.81144999 -16.71875 22.32421875 C-16.75742187 23.17177734 -16.79609375 24.01933594 -16.8359375 24.89257812 C-16.88234375 26.21418945 -16.88234375 26.21418945 -16.9296875 27.5625 C-16.96835937 28.45517578 -17.00703125 29.34785156 -17.046875 30.26757812 C-17.14108968 32.4698462 -17.22670338 34.67210722 -17.3046875 36.875 C-16.66966309 36.82263184 -16.03463867 36.77026367 -15.38037109 36.71630859 C-10.43647348 36.36014599 -5.51928886 36.16629366 -0.5625 36.28125 C0.3538623 36.29994141 1.27022461 36.31863281 2.21435547 36.33789062 C5.38399408 37.02409461 6.47750065 38.22132001 8.4453125 40.75 C9.21546737 42.78414951 9.96139079 44.82749867 10.6953125 46.875 C12.39639106 50.1350453 14.24086384 53.31069043 16.0703125 56.5 C16.95630216 58.09459301 17.83936153 59.69081957 18.71875 61.2890625 C19.09950684 61.9795166 19.48026367 62.6699707 19.87255859 63.38134766 C20.14406738 63.87425293 20.41557617 64.3671582 20.6953125 64.875 C21.20320313 63.85921875 21.71109375 62.8434375 22.234375 61.796875 C26.38802083 53.48958333 30.54166667 45.18229167 34.6953125 36.875 C42.2853125 36.875 49.8753125 36.875 57.6953125 36.875 C52.90487978 47.2542709 47.89946117 57.43358099 42.53125 67.5234375 C39.20320015 73.78169588 35.95157465 80.07917965 32.6953125 86.375 C28.48291516 94.50881234 24.2652604 102.63965807 20.0078125 110.75 C19.41129883 111.88985352 19.41129883 111.88985352 18.80273438 113.05273438 C18.43341797 113.75462891 18.06410156 114.45652344 17.68359375 115.1796875 C17.36946533 115.77765137 17.05533691 116.37561523 16.73168945 116.99169922 C16.38968506 117.61318848 16.04768066 118.23467773 15.6953125 118.875 C15.05601807 120.21171753 15.05601807 120.21171753 14.40380859 121.57543945 C12.6953125 123.875 12.6953125 123.875 10.2434082 124.44262695 C8.82161255 124.40335083 8.82161255 124.40335083 7.37109375 124.36328125 C5.82905273 124.33911133 5.82905273 124.33911133 4.25585938 124.31445312 C3.18400391 124.27255859 2.11214844 124.23066406 1.0078125 124.1875 C-0.07564453 124.16494141 -1.15910156 124.14238281 -2.27539062 124.11914062 C-4.95320655 124.0601579 -7.62825777 123.97790307 -10.3046875 123.875 C-8.99756287 121.05989235 -7.68499156 118.24761062 -6.3671875 115.4375 C-5.96838379 114.58454346 -5.56958008 113.73158691 -5.15869141 112.8527832 C-3.10762687 108.51282049 -0.99620915 104.23769938 1.33203125 100.0390625 C1.74912354 99.28423584 2.16621582 98.52940918 2.59594727 97.75170898 C3.39595617 96.32126435 4.20974324 94.89841564 5.03881836 93.48461914 C7.51848569 89.04451462 7.92201 86.75602063 6.6953125 81.875 C5.35007771 78.88921913 5.35007771 78.88921913 3.60546875 75.92578125 C2.98607422 74.83072266 2.36667969 73.73566406 1.72851562 72.60742188 C1.07818359 71.47884766 0.42785156 70.35027344 -0.2421875 69.1875 C-0.88865234 68.04732422 -1.53511719 66.90714844 -2.20117188 65.73242188 C-5.61335386 59.71823715 -5.61335386 59.71823715 -9.3046875 53.875 C-11.9446875 53.545 -14.5846875 53.215 -17.3046875 52.875 C-17.3046875 66.735 -17.3046875 80.595 -17.3046875 94.875 C-23.9046875 94.875 -30.5046875 94.875 -37.3046875 94.875 C-37.3046875 80.685 -37.3046875 66.495 -37.3046875 51.875 C-39.6146875 51.875 -41.9246875 51.875 -44.3046875 51.875 C-44.3046875 66.065 -44.3046875 80.255 -44.3046875 94.875 C-50.9046875 94.875 -57.5046875 94.875 -64.3046875 94.875 C-64.3046875 75.735 -64.3046875 56.595 -64.3046875 36.875 C-55.3946875 36.875 -46.4846875 36.875 -37.3046875 36.875 C-37.42229456 30.69794146 -37.42229456 30.69794146 -37.57495117 24.52172852 C-37.65385658 16.20611639 -36.21614398 9.14570141 -30.3671875 2.9375 C-29.36365234 1.84115234 -29.36365234 1.84115234 -28.33984375 0.72265625 C-20.61718548 -6.28850951 -8.75962367 -4.05590292 0 0 Z " fill="#8557F6" transform="translate(460.3046875,35.125)"/>
<path d="M0 0 C-0.60930006 7.81955675 -2.90656294 15.08627107 -5.1484375 22.5703125 C-5.56619587 23.97928512 -5.98355762 25.38837539 -6.40054321 26.7975769 C-7.27241267 29.73883442 -8.14872629 32.67871939 -9.02832031 35.61767578 C-10.15161791 39.37205026 -11.26420367 43.12949781 -12.37354088 46.88801765 C-13.23248217 49.79412117 -14.09684413 52.69859057 -14.96284866 55.60259628 C-15.37507755 56.98711486 -15.7857046 58.37211148 -16.19465256 59.75760269 C-16.76802238 61.69695903 -17.34943719 63.63393129 -17.93115234 65.57080078 C-18.25900726 66.6703006 -18.58686218 67.76980042 -18.9246521 68.90261841 C-21.59544508 76.59544508 -21.59544508 76.59544508 -24 79 C-28.56650555 79.36107444 -31.43196917 78.64270578 -35.4765625 76.55859375 C-36.476875 76.05779297 -37.4771875 75.55699219 -38.5078125 75.04101562 C-40.05082031 74.24727539 -40.05082031 74.24727539 -41.625 73.4375 C-43.67411821 72.38363137 -45.72861978 71.34014614 -47.7890625 70.30859375 C-48.69350098 69.84251709 -49.59793945 69.37644043 -50.52978516 68.89624023 C-52.89181875 67.87472309 -52.89181875 67.87472309 -55.10449219 68.02709961 C-57.94973637 69.48746773 -58.91958304 71.52452323 -60.5390625 74.2578125 C-61.19753174 75.35222656 -61.85600098 76.44664062 -62.53442383 77.57421875 C-63.04702255 78.44506104 -63.04702255 78.44506104 -63.56997681 79.33349609 C-64.97985526 81.72756931 -66.41700666 84.10477503 -67.85365295 86.48284912 C-68.56744717 87.66457205 -69.27996568 88.84706648 -69.99119568 90.03033447 C-72.83362447 94.75372297 -75.7631858 99.40780102 -78.8125 104 C-79.39668701 104.89549561 -79.39668701 104.89549561 -79.99267578 105.80908203 C-81.84068565 108.57157102 -83.18412664 110.12275109 -86 112 C-89.30634579 112.51117846 -90.62545414 112.24849677 -93.4375 110.3828125 C-94.283125 109.63773437 -95.12875 108.89265625 -96 108.125 C-96.95648438 107.30515625 -97.91296875 106.4853125 -98.8984375 105.640625 C-99.40213867 105.20685547 -99.90583984 104.77308594 -100.42480469 104.32617188 C-103.08775652 102.08420747 -105.85676645 99.98441991 -108.625 97.875 C-109.16995117 97.45387939 -109.71490234 97.03275879 -110.27636719 96.59887695 C-112.74506773 94.69458883 -115.22988223 92.83998394 -117.7890625 91.05859375 C-121.68483407 88.29445107 -123.6721281 86.87929282 -125.375 82.3125 C-125 79 -125 79 -122.875 76.5 C-119.44867109 74.71235013 -118.60940394 74.89147386 -115 76 C-112.5625 77.49609375 -112.5625 77.49609375 -110 79.4375 C-109.05511719 80.15035156 -108.11023438 80.86320312 -107.13671875 81.59765625 C-105.58404297 82.78681641 -105.58404297 82.78681641 -104 84 C-102.79903624 84.89568439 -101.59718731 85.79018294 -100.39453125 86.68359375 C-99.19997162 87.57999775 -98.0059516 88.47712133 -96.8125 89.375 C-96.23564453 89.80353271 -95.65878906 90.23206543 -95.06445312 90.67358398 C-93.67194716 91.73467184 -92.33043071 92.86204814 -91 94 C-91 94.66 -91 95.32 -91 96 C-90.34 96 -89.68 96 -89 96 C-88.59382446 94.90800293 -88.59382446 94.90800293 -88.17944336 93.79394531 C-87.03296244 91.07808365 -85.72067841 88.77335925 -84.12890625 86.296875 C-83.55986572 85.40637451 -82.9908252 84.51587402 -82.40454102 83.59838867 C-81.49273071 82.18843628 -81.49273071 82.18843628 -80.5625 80.75 C-79.29135042 78.78275639 -78.02052099 76.81530588 -76.75 74.84765625 C-75.80060547 73.3783667 -75.80060547 73.3783667 -74.83203125 71.87939453 C-73.13551161 69.21298294 -71.49494373 66.5219995 -69.875 63.80859375 C-69.15848267 62.63248535 -69.15848267 62.63248535 -68.42749023 61.43261719 C-67.53912907 59.97145294 -66.66780735 58.49974631 -65.81665039 57.01660156 C-63.68379198 53.56336155 -62.62359779 52.23060513 -58.71484375 50.78515625 C-53.80641566 51.06902959 -50.68012251 52.78978478 -46.5 55.25 C-45.05353233 56.07026878 -43.60562972 56.88801272 -42.15625 57.703125 C-41.46402344 58.09564453 -40.77179688 58.48816406 -40.05859375 58.89257812 C-37.11490977 60.47613488 -34.09662011 61.74505395 -31 63 C-30.83890747 62.11065262 -30.83890747 62.11065262 -30.67456055 61.20333862 C-29.42944215 54.63249328 -27.73610326 48.28454541 -25.8125 41.8828125 C-25.50932861 40.86323456 -25.20615723 39.84365662 -24.89379883 38.79318237 C-24.25722873 36.65639186 -23.61844588 34.52025939 -22.97753906 32.38476562 C-21.99703215 29.11510321 -21.02539401 25.84289619 -20.0546875 22.5703125 C-19.43281592 20.48682262 -18.81043797 18.40348379 -18.1875 16.3203125 C-17.89786377 15.34426056 -17.60822754 14.36820862 -17.30981445 13.36257935 C-16.89928833 11.99998489 -16.89928833 11.99998489 -16.48046875 10.60986328 C-16.12311646 9.4160051 -16.12311646 9.4160051 -15.75854492 8.19802856 C-14.99940465 5.99827485 -14.16357407 4.0157107 -13 2 C-11.23046875 1.171875 -11.23046875 1.171875 -9.1875 0.75 C-8.47980469 0.60304687 -7.77210938 0.45609375 -7.04296875 0.3046875 C-4.66854981 -0.04943234 -2.39621941 -0.14976371 0 0 Z " fill="#51319D" transform="translate(143,57)"/>
<path d="M0 0 C-0.58107632 3.7602985 -1.65199496 6.53035032 -3.5625 9.8125 C-4.01753906 10.60269531 -4.47257812 11.39289063 -4.94140625 12.20703125 C-5.46541016 13.09455078 -5.46541016 13.09455078 -6 14 C-6.55945313 13.84144531 -7.11890625 13.68289062 -7.6953125 13.51953125 C-13.29860386 12.25641642 -18.36576485 12.15369966 -23.5 14.8125 C-26.23389318 17.20465653 -27.8411825 18.8236425 -28.3359375 22.48828125 C-28.41928177 28.51407199 -28.21086932 32.30788847 -24 37 C-20.64119635 39.23920243 -19.48423396 39.24603334 -15.5625 39.1875 C-14.61503906 39.18105469 -13.66757813 39.17460938 -12.69140625 39.16796875 C-10.3139406 39.01959281 -8.27620963 38.67263878 -6 38 C-4.96427104 39.74122549 -3.9468748 41.49336595 -2.9375 43.25 C-2.36902344 44.22453125 -1.80054688 45.1990625 -1.21484375 46.203125 C0 49 0 49 -0.20678711 51.06738281 C-1 53 -1 53 -4.4765625 54.71875 C-9.11270805 56.23866231 -13.52167453 56.53912 -18.375 56.5 C-19.21135986 56.49355469 -20.04771973 56.48710937 -20.90942383 56.48046875 C-30.03414345 56.21050138 -35.7066194 53.34573127 -42.375 47.1875 C-49.49676647 39.37374003 -50.90664557 32.64235206 -50.4375 22.13671875 C-49.79197913 14.2093639 -46.40861305 9.04577292 -40.75 3.625 C-28.95259217 -5.89774423 -13.52716802 -7.44492785 0 0 Z " fill="#8557F6" transform="translate(223,75)"/>
<path d="M0 0 C-1.33233181 7.47413513 -3.26337996 14.65660527 -5.4765625 21.9140625 C-5.80667328 23.00971527 -6.13678406 24.10536804 -6.47689819 25.23422241 C-7.52192726 28.69914295 -8.57335286 32.16208309 -9.625 35.625 C-10.33896693 37.98815281 -11.05251279 40.35143288 -11.765625 42.71484375 C-13.50555117 48.47804276 -15.25071907 54.23963394 -17 60 C-18.41989539 59.54778593 -19.83800799 59.08997226 -21.25537109 58.62988281 C-22.04527435 58.37555481 -22.83517761 58.12122681 -23.64901733 57.85919189 C-27.87819148 56.31359473 -31.66090662 53.94982274 -35.4921875 51.609375 C-38.62513856 49.81911725 -41.00387464 48.99971516 -44.61328125 48.734375 C-49.63577487 50.61129303 -51.0787018 53.9254641 -53.5625 58.5 C-54.50658742 60.14393332 -55.45188834 61.78717037 -56.3984375 63.4296875 C-56.84413086 64.21956055 -57.28982422 65.00943359 -57.74902344 65.82324219 C-59.96614384 69.68113554 -62.46704258 73.34484626 -65 77 C-66.30853384 73.07439848 -65.05826279 70.83419976 -63.578125 67.1796875 C-63.31747253 66.52042267 -63.05682007 65.86115784 -62.78826904 65.18191528 C-62.23467046 63.78979646 -61.67621259 62.39960165 -61.11328125 61.01123047 C-60.25274382 58.88178973 -59.41462487 56.74444813 -58.578125 54.60546875 C-58.03779124 53.25467439 -57.49616763 51.90439512 -56.953125 50.5546875 C-56.70298645 49.91304657 -56.4528479 49.27140564 -56.19512939 48.61032104 C-55.45800781 46.81982422 -55.45800781 46.81982422 -54 44 C-52.515 43.505 -52.515 43.505 -51 43 C-50.4225 43.309375 -49.845 43.61875 -49.25 43.9375 C-45.71713437 45.60579766 -43.8688836 45.78689158 -40 45 C-37.14109428 42.00163546 -35.12046026 38.5434623 -33 35 C-31.73489016 32.95478186 -30.46421851 30.91299166 -29.1875 28.875 C-28.62417969 27.94429687 -28.06085938 27.01359375 -27.48046875 26.0546875 C-26.99191406 25.37664062 -26.50335938 24.69859375 -26 24 C-25.34 24 -24.68 24 -24 24 C-23.72671875 23.26265625 -23.4534375 22.5253125 -23.171875 21.765625 C-21.71212668 18.32061898 -19.76119746 15.48949923 -17.640625 12.421875 C-16.54015527 10.79737207 -15.48780259 9.13929714 -14.484375 7.453125 C-10.7297514 1.24811548 -10.7297514 1.24811548 -6.875 -0.0625 C-4.58377998 -0.01269087 -2.29176136 0 0 0 Z " fill="#FAF9FD" transform="translate(129,60)"/>
<path d="M0 0 C4.29 1.65 8.58 3.3 13 5 C11.39690792 9.02126474 9.7925655 13.042023 8.1875 17.0625 C7.50977539 18.7630957 7.50977539 18.7630957 6.81835938 20.49804688 C3.04272829 29.95090425 3.04272829 29.95090425 1.30078125 33.93359375 C-0.03986211 36.95339202 -0.03986211 36.95339202 -0.9375 40.0078125 C-2.20603882 43.58024168 -4.00275288 46.67651005 -6 49.875 C-6.35578125 50.46796875 -6.7115625 51.0609375 -7.078125 51.671875 C-7.99269997 53.15294043 -8.99023537 54.58212216 -10 56 C-10.66 56 -11.32 56 -12 56 C-13.66666667 54.33333333 -15.33333333 52.66666667 -17 51 C-18.95045643 49.56354621 -20.94613415 48.2896367 -23 47 C-21.88625 45.9790625 -21.88625 45.9790625 -20.75 44.9375 C-15.68331173 39.84667566 -13.12276714 33.23954504 -10.546875 26.66015625 C-10.08924774 25.50972084 -10.08924774 25.50972084 -9.62237549 24.33604431 C-8.65999248 21.91344764 -7.70488769 19.48805941 -6.75 17.0625 C-6.09423125 15.4080123 -5.43798575 13.75371348 -4.78125 12.09960938 C-3.18198271 8.06856784 -1.58923111 4.03500824 0 0 Z " fill="#AC8EF5" transform="translate(64,97)"/>
<path d="M0 0 C4.47657075 0.59264294 6.78604185 2.5966654 10.1796875 5.4375 C10.77265625 5.91445313 11.365625 6.39140625 11.9765625 6.8828125 C13.42979637 8.0547753 14.86873605 9.24442461 16.3046875 10.4375 C11.23984792 19.59446163 5.49479652 28.01795534 -0.6953125 36.4375 C-4.54557129 35.83394592 -7.55632409 34.66977397 -11.0078125 32.875 C-11.89082031 32.41996094 -12.77382812 31.96492188 -13.68359375 31.49609375 C-14.34746094 31.14675781 -15.01132813 30.79742187 -15.6953125 30.4375 C-4.73914496 0.76925252 -4.73914496 0.76925252 0 0 Z " fill="#AC8DF6" transform="translate(84.6953125,54.5625)"/>
<path d="M0 0 C3.48579191 1.98927391 6.19581306 4.39162612 8 8 C8.80607644 14.48825463 7.96341638 18.78497845 4 24 C-0.31733382 26.9741633 -3.81076076 27.6486549 -9 27 C-13.77585774 24.565249 -16.60117067 21.79765866 -19 17 C-19.87302198 12.54580621 -19.37579076 9.71131823 -17.25 5.6875 C-12.21858528 -0.32224537 -7.69463155 -1.37830495 0 0 Z " fill="#FCFAFE" transform="translate(257,88)"/>
<path d="M0 0 C3.39488422 2.05107588 4.80323081 3.70484621 7 7 C7.4913517 12.20832803 6.88996237 15.61522951 4 20 C0.61330274 22.90288337 -2.53268079 23.58198247 -7 23.4296875 C-10.61068185 22.65395507 -12.45265225 20.60947818 -15 18 C-16.88258744 14.23482511 -16.63179563 10.09103307 -16 6 C-12.73452412 -0.58257984 -6.72022271 -1.33506929 0 0 Z " fill="#8657F6" transform="translate(411,37)"/>
<path d="M0 0 C-1.27866823 6.95655293 -2.923099 13.72105861 -4.9375 20.5 C-5.18951172 21.39203125 -5.44152344 22.2840625 -5.70117188 23.203125 C-5.95318359 24.05390625 -6.20519531 24.9046875 -6.46484375 25.78125 C-6.79923462 26.9269043 -6.79923462 26.9269043 -7.14038086 28.09570312 C-8 30 -8 30 -11 32 C-13.95817184 31.69814573 -16.33437658 31.33281171 -19 30 C-19 29.34 -19 28.68 -19 28 C-19.8971875 27.566875 -19.8971875 27.566875 -20.8125 27.125 C-23 26 -23 26 -26 24 C-25.34 24 -24.68 24 -24 24 C-23.72671875 23.26265625 -23.4534375 22.5253125 -23.171875 21.765625 C-21.71212668 18.32061898 -19.76119746 15.48949923 -17.640625 12.421875 C-16.54015527 10.79737207 -15.48780259 9.13929714 -14.484375 7.453125 C-10.7297514 1.24811548 -10.7297514 1.24811548 -6.875 -0.0625 C-4.58377998 -0.01269087 -2.29176136 0 0 0 Z " fill="#AB8DF5" transform="translate(129,60)"/>
<path d="M0 0 C3.74542858 2.22683914 7.3869754 4.56330899 11 7 C7.57331016 11.86144209 3.86823496 16.48316371 0 21 C-0.804375 21.94875 -1.60875 22.8975 -2.4375 23.875 C-5 26 -5 26 -8.1640625 26.41796875 C-11 26 -11 26 -13.375 24.3125 C-15.27258004 21.61209763 -15.35882213 20.22939919 -15 17 C-14.34 17 -13.68 17 -13 17 C-12.78601563 16.47921875 -12.57203125 15.9584375 -12.3515625 15.421875 C-10.44194057 12.00000911 -7.93324112 9.20431398 -5.375 6.25 C-4.859375 5.64800781 -4.34375 5.04601562 -3.8125 4.42578125 C-2.54530865 2.94739134 -1.27314225 1.47326829 0 0 Z " fill="#AB8CF5" transform="translate(33,154)"/>
<path d="M0 0 C1.875 1.0625 1.875 1.0625 3 3 C4.06045763 9.96872157 1.2016567 16.46383166 -1 23 C-2.39417773 23.34019152 -3.79044658 23.67181779 -5.1875 24 C-5.96480469 24.185625 -6.74210938 24.37125 -7.54296875 24.5625 C-10.07990225 25.01422743 -12.42879903 25.07307143 -15 25 C-10.57421452 -1.32177681 -10.57421452 -1.32177681 0 0 Z " fill="#50319D" transform="translate(149,20)"/>
<path d="M0 0 C0.33 0 0.66 0 1 0 C1 9.57 1 19.14 1 29 C-0.65 27.35 -2.3 25.7 -4 24 C-8.68956494 20.22547212 -13.59632061 18.69692742 -19.29296875 17.02734375 C-21.95100349 16.01859464 -23.21578281 15.16435969 -25 13 C-24.34 11.68 -23.68 10.36 -23 9 C-10.33029613 8.44646925 -10.33029613 8.44646925 -5 12 C-4.731875 11.13375 -4.46375 10.2675 -4.1875 9.375 C-3.02888013 6.08208036 -1.61790161 3.08872125 0 0 Z " fill="#FBF9FE" transform="translate(331,76)"/>
<path d="M0 0 C-2.14154833 12.52175905 -2.14154833 12.52175905 -5 17 C-7.73107975 18.17628595 -10.06243544 18.41291068 -13 18 C-15.5625 16.3125 -15.5625 16.3125 -17 14 C-16.34721 9.00931512 -13.24109224 4.71484819 -10 1 C-6.40175232 -0.22340421 -3.81524597 0 0 0 Z " fill="#FAF8FD" transform="translate(129,60)"/>
<path d="M0 0 C2.4375 1.125 2.4375 1.125 4 3 C4.5 5.9375 4.5 5.9375 4 9 C1.75350107 11.94989301 0.39121728 12.89983326 -3.234375 13.828125 C-4.39453125 13.96734375 -5.5546875 14.1065625 -6.75 14.25 C-7.92046875 14.39953125 -9.0909375 14.5490625 -10.296875 14.703125 C-11.18890625 14.80109375 -12.0809375 14.8990625 -13 15 C-12.71572583 13.41532272 -12.42225182 11.8322943 -12.125 10.25 C-11.96257812 9.36828125 -11.80015625 8.4865625 -11.6328125 7.578125 C-11.02519918 5.10266333 -10.32177701 3.17358885 -9 1 C-5.94306678 -0.52846661 -3.37015453 -0.23242445 0 0 Z " fill="#AB8DF5" transform="translate(148,73)"/>
<path d="M0 0 C1.65 0.99 3.3 1.98 5 3 C4.45954638 7.47921409 2.76807004 10.19643165 0.125 13.8125 C-0.57367188 14.78832031 -1.27234375 15.76414062 -1.9921875 16.76953125 C-2.65476562 17.50558594 -3.31734375 18.24164063 -4 19 C-4.99 19 -5.98 19 -7 19 C-5.17778624 12.38757278 -2.94776396 6.19479329 0 0 Z " fill="#F6F3FE" transform="translate(88,72)"/>
<path d="M0 0 C0.33 0.99 0.66 1.98 1 3 C-0.9375 6.1875 -0.9375 6.1875 -3 9 C-4 6 -4 6 -3.1875 3.375 C-2 1 -2 1 0 0 Z " fill="#EBE7F7" transform="translate(67,128)"/>
</svg>
